<svg id="Layer_1" data-name="Layer 1" xmlns="http://www.w3.org/2000/svg" viewBox="0 0 33 45"><path d="M12,47.5A2.5,2.5,0,0,1,9.5,45V6a2.5,2.5,0,0,1,5,0V45A2.5,2.5,0,0,1,12,47.5Z" transform="translate(-9 -3)"/><path d="M12,4a2,2,0,0,1,2,2V45a2,2,0,0,1-4,0V6a2,2,0,0,1,2-2m0-1A3,3,0,0,0,9,6V45a3,3,0,0,0,6,0V6a3,3,0,0,0-3-3Z" transform="translate(-9 -3)"/><path d="M26,47.5A2.5,2.5,0,0,1,23.5,45V18a2.5,2.5,0,0,1,5,0V45A2.5,2.5,0,0,1,26,47.5Z" transform="translate(-9 -3)"/><path d="M26,16a2,2,0,0,1,2,2V45a2,2,0,0,1-4,0V18a2,2,0,0,1,2-2m0-1a3,3,0,0,0-3,3V45a3,3,0,0,0,6,0V18a3,3,0,0,0-3-3Z" transform="translate(-9 -3)"/><path d="M39,47.5A2.5,2.5,0,0,1,36.5,45V29a2.5,2.5,0,0,1,5,0V45A2.5,2.5,0,0,1,39,47.5Z" transform="translate(-9 -3)"/><path d="M39,27a2,2,0,0,1,2,2V45a2,2,0,0,1-4,0V29a2,2,0,0,1,2-2m0-1a3,3,0,0,0-3,3V45a3,3,0,0,0,6,0V29a3,3,0,0,0-3-3Z" transform="translate(-9 -3)"/></svg>